# xmcd
#
# Track frame offsets:
#       150
#       16722
#       34823
#
# Disc length: 660 seconds
#
# Revision: 0
# Processed by: cddbd v1.4PL0 Copyright (c) Steve Scherf et al.
# Submitted via: CD-DA_X-Tractor v0.23
#
DISCID=16029203
DTITLE=Kyoti King - Wild Ass Ranch
DYEAR=2002
DGENRE=roots
TTITLE0=Nothin' I want
TTITLE1=Come on out little doggies
TTITLE2=Gear box
EXTD=
EXTT0=
EXTT1=
EXTT2=
PLAYORDER=
